<svg width="24" height="24" viewBox="0 0 24 24" fill="none" xmlns="http://www.w3.org/2000/svg"><path fill-rule="evenodd" clip-rule="evenodd" d="M16.416 1.277L15.281 2.98A5.992 5.992 0 0118 8H6a5.992 5.992 0 012.719-5.02L7.584 1.277a.5.5 0 11.832-.554l1.186 1.779a5.975 5.975 0 014.796 0l1.186-1.78a.5.5 0 11.832.554zM7 20a1 1 0 01-1-1V9h12v10a1 1 0 01-1 1h-1v3a1 1 0 01-2 0v-3h-4v3a1 1 0 01-2 0v-3H7zM4 9a1 1 0 00-1 1v5a1 1 0 002 0v-5a1 1 0 00-1-1zm15 1a1 1 0 012 0v5a1 1 0 01-2 0v-5zm-9-4a1 1 0 100-2 1 1 0 000 2zm5-1a1 1 0 11-2 0 1 1 0 012 0z" fill="#151922"/></svg>